<mxfile host="app.diagrams.net" modified="2020-10-05T17:20:50.390Z" agent="5.0 (Windows NT 10.0; Win64; x64) AppleWebKit/537.36 (KHTML, like Gecko) Chrome/85.0.4183.121 Safari/537.36" etag="g0ZKxfU4iMnKFxIrKkWt" version="13.7.7" type="github">
  <diagram id="QYwQoGs2WD22laDeAXIQ" name="Page-1">
    <mxGraphModel dx="1422" dy="762" grid="1" gridSize="10" guides="1" tooltips="1" connect="1" arrows="1" fold="1" page="1" pageScale="1" pageWidth="850" pageHeight="1100" math="0" shadow="0">
      <root>
        <mxCell id="0" />
        <mxCell id="1" parent="0" />
        <mxCell id="GtAdoeylb1GJBFZ6TU4h-5" value="" style="edgeStyle=orthogonalEdgeStyle;rounded=0;orthogonalLoop=1;jettySize=auto;html=1;" parent="1" source="GtAdoeylb1GJBFZ6TU4h-1" edge="1">
          <mxGeometry relative="1" as="geometry">
            <mxPoint x="360" y="210" as="targetPoint" />
          </mxGeometry>
        </mxCell>
        <mxCell id="GtAdoeylb1GJBFZ6TU4h-1" value="start" style="ellipse;whiteSpace=wrap;html=1;" parent="1" vertex="1">
          <mxGeometry x="300" y="50" width="120" height="80" as="geometry" />
        </mxCell>
        <mxCell id="GtAdoeylb1GJBFZ6TU4h-21" value="" style="edgeStyle=orthogonalEdgeStyle;rounded=0;orthogonalLoop=1;jettySize=auto;html=1;" parent="1" target="GtAdoeylb1GJBFZ6TU4h-20" edge="1">
          <mxGeometry relative="1" as="geometry">
            <mxPoint x="360" y="260" as="sourcePoint" />
          </mxGeometry>
        </mxCell>
        <mxCell id="GtAdoeylb1GJBFZ6TU4h-4" value="enter starting balsnce" style="shape=parallelogram;perimeter=parallelogramPerimeter;whiteSpace=wrap;html=1;fixedSize=1;" parent="1" vertex="1">
          <mxGeometry x="270" y="210" width="180" height="50" as="geometry" />
        </mxCell>
        <mxCell id="GtAdoeylb1GJBFZ6TU4h-22" value="no" style="edgeStyle=orthogonalEdgeStyle;rounded=0;orthogonalLoop=1;jettySize=auto;html=1;entryX=1;entryY=0.5;entryDx=0;entryDy=0;" parent="1" source="GtAdoeylb1GJBFZ6TU4h-20" edge="1">
          <mxGeometry relative="1" as="geometry">
            <mxPoint x="440" y="235" as="targetPoint" />
            <Array as="points">
              <mxPoint x="510" y="365" />
              <mxPoint x="510" y="235" />
            </Array>
          </mxGeometry>
        </mxCell>
        <mxCell id="GtAdoeylb1GJBFZ6TU4h-24" value="yes" style="edgeStyle=orthogonalEdgeStyle;rounded=0;orthogonalLoop=1;jettySize=auto;html=1;" parent="1" source="GtAdoeylb1GJBFZ6TU4h-20" target="GtAdoeylb1GJBFZ6TU4h-23" edge="1">
          <mxGeometry relative="1" as="geometry" />
        </mxCell>
        <mxCell id="GtAdoeylb1GJBFZ6TU4h-20" value="is it a number" style="rhombus;whiteSpace=wrap;html=1;" parent="1" vertex="1">
          <mxGeometry x="320" y="325" width="80" height="80" as="geometry" />
        </mxCell>
        <mxCell id="GtAdoeylb1GJBFZ6TU4h-26" value="" style="edgeStyle=orthogonalEdgeStyle;rounded=0;orthogonalLoop=1;jettySize=auto;html=1;" parent="1" source="GtAdoeylb1GJBFZ6TU4h-23" target="GtAdoeylb1GJBFZ6TU4h-25" edge="1">
          <mxGeometry relative="1" as="geometry" />
        </mxCell>
        <mxCell id="GtAdoeylb1GJBFZ6TU4h-23" value="enter yearly contribution&amp;nbsp;" style="shape=parallelogram;perimeter=parallelogramPerimeter;whiteSpace=wrap;html=1;fixedSize=1;" parent="1" vertex="1">
          <mxGeometry x="300" y="495" width="120" height="60" as="geometry" />
        </mxCell>
        <mxCell id="GtAdoeylb1GJBFZ6TU4h-29" value="yes" style="edgeStyle=orthogonalEdgeStyle;rounded=0;orthogonalLoop=1;jettySize=auto;html=1;" parent="1" source="GtAdoeylb1GJBFZ6TU4h-25" target="GtAdoeylb1GJBFZ6TU4h-28" edge="1">
          <mxGeometry relative="1" as="geometry" />
        </mxCell>
        <mxCell id="GtAdoeylb1GJBFZ6TU4h-30" value="no" style="edgeStyle=orthogonalEdgeStyle;rounded=0;orthogonalLoop=1;jettySize=auto;html=1;entryX=0;entryY=0.5;entryDx=0;entryDy=0;" parent="1" source="GtAdoeylb1GJBFZ6TU4h-25" target="GtAdoeylb1GJBFZ6TU4h-23" edge="1">
          <mxGeometry relative="1" as="geometry">
            <Array as="points">
              <mxPoint x="230" y="665" />
              <mxPoint x="230" y="525" />
            </Array>
          </mxGeometry>
        </mxCell>
        <mxCell id="GtAdoeylb1GJBFZ6TU4h-25" value="is it a number&amp;nbsp;" style="rhombus;whiteSpace=wrap;html=1;" parent="1" vertex="1">
          <mxGeometry x="320" y="625" width="80" height="80" as="geometry" />
        </mxCell>
        <mxCell id="GtAdoeylb1GJBFZ6TU4h-32" value="" style="edgeStyle=orthogonalEdgeStyle;rounded=0;orthogonalLoop=1;jettySize=auto;html=1;" parent="1" source="GtAdoeylb1GJBFZ6TU4h-28" target="GtAdoeylb1GJBFZ6TU4h-31" edge="1">
          <mxGeometry relative="1" as="geometry" />
        </mxCell>
        <mxCell id="GtAdoeylb1GJBFZ6TU4h-28" value="enter average return on in vestment as %" style="shape=parallelogram;perimeter=parallelogramPerimeter;whiteSpace=wrap;html=1;fixedSize=1;" parent="1" vertex="1">
          <mxGeometry x="275" y="795" width="170" height="45" as="geometry" />
        </mxCell>
        <mxCell id="GtAdoeylb1GJBFZ6TU4h-33" value="no" style="edgeStyle=orthogonalEdgeStyle;rounded=0;orthogonalLoop=1;jettySize=auto;html=1;entryX=1;entryY=0.5;entryDx=0;entryDy=0;" parent="1" source="GtAdoeylb1GJBFZ6TU4h-31" target="GtAdoeylb1GJBFZ6TU4h-28" edge="1">
          <mxGeometry relative="1" as="geometry">
            <Array as="points">
              <mxPoint x="490" y="943" />
              <mxPoint x="490" y="818" />
            </Array>
          </mxGeometry>
        </mxCell>
        <mxCell id="GtAdoeylb1GJBFZ6TU4h-39" value="yes" style="edgeStyle=orthogonalEdgeStyle;rounded=0;orthogonalLoop=1;jettySize=auto;html=1;exitX=0.5;exitY=1;exitDx=0;exitDy=0;entryX=0.5;entryY=0;entryDx=0;entryDy=0;" parent="1" source="GtAdoeylb1GJBFZ6TU4h-31" target="GtAdoeylb1GJBFZ6TU4h-34" edge="1">
          <mxGeometry relative="1" as="geometry" />
        </mxCell>
        <mxCell id="GtAdoeylb1GJBFZ6TU4h-31" value="is it a number" style="rhombus;whiteSpace=wrap;html=1;" parent="1" vertex="1">
          <mxGeometry x="320" y="902.5" width="80" height="80" as="geometry" />
        </mxCell>
        <mxCell id="GtAdoeylb1GJBFZ6TU4h-37" value="" style="edgeStyle=orthogonalEdgeStyle;rounded=0;orthogonalLoop=1;jettySize=auto;html=1;" parent="1" source="GtAdoeylb1GJBFZ6TU4h-34" target="GtAdoeylb1GJBFZ6TU4h-36" edge="1">
          <mxGeometry relative="1" as="geometry" />
        </mxCell>
        <mxCell id="GtAdoeylb1GJBFZ6TU4h-34" value="enter the number of years&amp;nbsp;" style="shape=parallelogram;perimeter=parallelogramPerimeter;whiteSpace=wrap;html=1;fixedSize=1;" parent="1" vertex="1">
          <mxGeometry x="275" y="1072.5" width="170" height="47.5" as="geometry" />
        </mxCell>
        <mxCell id="GtAdoeylb1GJBFZ6TU4h-38" value="yes" style="edgeStyle=orthogonalEdgeStyle;rounded=0;orthogonalLoop=1;jettySize=auto;html=1;entryX=0;entryY=0.5;entryDx=0;entryDy=0;" parent="1" source="GtAdoeylb1GJBFZ6TU4h-36" target="GtAdoeylb1GJBFZ6TU4h-34" edge="1">
          <mxGeometry relative="1" as="geometry">
            <Array as="points">
              <mxPoint x="210" y="1224" />
              <mxPoint x="210" y="1096" />
            </Array>
          </mxGeometry>
        </mxCell>
        <mxCell id="GtAdoeylb1GJBFZ6TU4h-43" value="no" style="edgeStyle=orthogonalEdgeStyle;rounded=0;orthogonalLoop=1;jettySize=auto;html=1;" parent="1" source="GtAdoeylb1GJBFZ6TU4h-36" target="GtAdoeylb1GJBFZ6TU4h-42" edge="1">
          <mxGeometry relative="1" as="geometry" />
        </mxCell>
        <mxCell id="GtAdoeylb1GJBFZ6TU4h-36" value="if not a number&amp;nbsp;" style="rhombus;whiteSpace=wrap;html=1;" parent="1" vertex="1">
          <mxGeometry x="320" y="1183.75" width="80" height="80" as="geometry" />
        </mxCell>
        <mxCell id="GtAdoeylb1GJBFZ6TU4h-46" value="" style="edgeStyle=orthogonalEdgeStyle;rounded=0;orthogonalLoop=1;jettySize=auto;html=1;" parent="1" source="GtAdoeylb1GJBFZ6TU4h-42" target="GtAdoeylb1GJBFZ6TU4h-45" edge="1">
          <mxGeometry relative="1" as="geometry" />
        </mxCell>
        <mxCell id="GtAdoeylb1GJBFZ6TU4h-42" value="calculate the balance at the end of each year&lt;br&gt;YB=(SB+YC)*(1+ARI/100)" style="whiteSpace=wrap;html=1;" parent="1" vertex="1">
          <mxGeometry x="240" y="1340" width="240" height="116.25" as="geometry" />
        </mxCell>
        <mxCell id="wTEkrGCnHh-30zT8E-gc-4" style="edgeStyle=orthogonalEdgeStyle;rounded=0;orthogonalLoop=1;jettySize=auto;html=1;entryX=0.5;entryY=0;entryDx=0;entryDy=0;" edge="1" parent="1" source="GtAdoeylb1GJBFZ6TU4h-45" target="wTEkrGCnHh-30zT8E-gc-3">
          <mxGeometry relative="1" as="geometry" />
        </mxCell>
        <mxCell id="GtAdoeylb1GJBFZ6TU4h-45" value="&#xa;&#xa;&lt;span style=&quot;color: rgb(0, 0, 0); font-family: helvetica; font-size: 12px; font-style: normal; font-weight: 400; letter-spacing: normal; text-align: center; text-indent: 0px; text-transform: none; word-spacing: 0px; background-color: rgb(248, 249, 250); display: inline; float: none;&quot;&gt;display result&lt;/span&gt;&#xa;&#xa;" style="shape=parallelogram;perimeter=parallelogramPerimeter;whiteSpace=wrap;html=1;fixedSize=1;" parent="1" vertex="1">
          <mxGeometry x="300" y="1493.75" width="120" height="60" as="geometry" />
        </mxCell>
        <mxCell id="GtAdoeylb1GJBFZ6TU4h-47" value="end" style="ellipse;whiteSpace=wrap;html=1;" parent="1" vertex="1">
          <mxGeometry x="300" y="1770" width="120" height="80" as="geometry" />
        </mxCell>
        <mxCell id="wTEkrGCnHh-30zT8E-gc-5" value="yes" style="edgeStyle=orthogonalEdgeStyle;rounded=0;orthogonalLoop=1;jettySize=auto;html=1;" edge="1" parent="1" source="wTEkrGCnHh-30zT8E-gc-3" target="GtAdoeylb1GJBFZ6TU4h-47">
          <mxGeometry relative="1" as="geometry" />
        </mxCell>
        <mxCell id="wTEkrGCnHh-30zT8E-gc-6" value="no" style="edgeStyle=orthogonalEdgeStyle;rounded=0;orthogonalLoop=1;jettySize=auto;html=1;entryX=0;entryY=0.5;entryDx=0;entryDy=0;" edge="1" parent="1" source="wTEkrGCnHh-30zT8E-gc-3" target="GtAdoeylb1GJBFZ6TU4h-42">
          <mxGeometry relative="1" as="geometry">
            <mxPoint x="80" y="960" as="targetPoint" />
            <Array as="points">
              <mxPoint x="130" y="1670" />
              <mxPoint x="130" y="1398" />
            </Array>
          </mxGeometry>
        </mxCell>
        <mxCell id="wTEkrGCnHh-30zT8E-gc-3" value="year met?" style="rhombus;whiteSpace=wrap;html=1;" vertex="1" parent="1">
          <mxGeometry x="320" y="1630" width="80" height="80" as="geometry" />
        </mxCell>
      </root>
    </mxGraphModel>
  </diagram>
</mxfile>
